<?xml version="1.0" encoding="UTF-8"?>
<svg id="Layer_2" data-name="Layer 2" xmlns="http://www.w3.org/2000/svg" viewBox="0 0 189.9 141.18">
  <defs>
    <style>
      .cls-1 {
        letter-spacing: 0em;
      }

      .cls-2 {
        font-family: BelyDisplay-Regular, 'Bely Display';
        font-size: 60px;
      }

      .cls-3 {
        stroke-width: .65px;
      }

      .cls-3, .cls-4, .cls-5, .cls-6 {
        stroke: #000;
      }

      .cls-3, .cls-4, .cls-5, .cls-6, .cls-7 {
        stroke-miterlimit: 10;
      }

      .cls-4 {
        stroke-width: .21px;
      }

      .cls-4, .cls-8 {
        fill: #fbb03b;
      }

      .cls-5 {
        stroke-width: .74px;
      }

      .cls-5, .cls-6, .cls-9 {
        fill: #333;
      }

      .cls-6 {
        stroke-width: .59px;
      }

      .cls-7 {
        stroke: #333;
        stroke-width: .74px;
      }

      .cls-7, .cls-10 {
        fill: #999;
      }

      .cls-11 {
        letter-spacing: -.01em;
      }

      .cls-12 {
        letter-spacing: 0em;
      }
    </style>
  </defs>
  <g id="Layer_1-2" data-name="Layer 1">
    <g>
      <g>
        <polygon class="cls-5" points="188.82 125.7 107.37 125.55 107.58 85.45 185.07 81.75 188.82 125.7"/>
        <polygon class="cls-7" points="187.84 119.2 107.37 119.11 107.59 81.75 185.07 81.75 187.84 119.2"/>
        <g>
          <ellipse class="cls-3" cx="150.93" cy="97.21" rx="20.22" ry="30.66" transform="translate(44.85 242.05) rotate(-86.57)"/>
          <ellipse class="cls-4" cx="150.94" cy="93.72" rx="6.14" ry="10.56" transform="translate(48.94 239.19) rotate(-86.8)"/>
          <path class="cls-9" d="M151.76,94.72l-1.74-.08.07-2.21c.02-.5.36-.89.77-.87h.25c.41.03.73.45.71.95l-.07,2.21Z"/>
          <path class="cls-6" d="M137.6,109.21c-.04.3,5.98,3.07,13.7,3.21,8.2.15,14.64-2.73,14.6-3.04-.04-.29-5.86,1.79-14.55,1.67-8.21-.12-13.7-2.13-13.75-1.84Z"/>
          <path class="cls-6" d="M141.07,108.17c-.02.23,4.44,1.33,9.76,1.5,6.13.19,11.19-.95,11.18-1.19-.01-.22-4.15.32-11.45.15-6.03-.14-9.47-.66-9.49-.46Z"/>
          <path class="cls-6" d="M163.26,87.2c-.08.21,3.61,1.31,4.87,5.25,1.05,3.27-.18,6.58.06,6.66.25.08,2.01-3.52,1.13-6.87-1.15-4.38-5.98-5.27-6.07-5.03Z"/>
        </g>
        <path class="cls-10" d="M135.06,88.56c.1.23.19.46.29.69.08-.23.17-.46.25-.69h-.54Z"/>
        <polygon class="cls-8" points="136.03 88.9 131.83 88.7 131.91 86.21 136.11 86.41 136.03 88.9"/>
        <path class="cls-3" d="M113.51,87.35l-3.27-.16.26-8.06c0-.08.06-.15.13-.14l3.15.15-.27,8.21Z"/>
        <path class="cls-9" d="M135.98,88.42l-25.39-8.83c-.25-.09-.4-.4-.34-.72l.6-2.86,25.84,8.99-.72,3.42Z"/>
      </g>
      <text class="cls-2" transform="translate(0 52.5)"><tspan x="0" y="0">Sou</tspan><tspan class="cls-12" x="111.78" y="0">n</tspan><tspan x="150.6" y="0">d</tspan><tspan x="0" y="72">S</tspan><tspan class="cls-11" x="35.76" y="72">e</tspan><tspan class="cls-1" x="65.1" y="72">t</tspan></text>
    </g>
  </g>
</svg>