<?xml version="1.0" encoding="UTF-8"?>
<svg id="Layer_2" data-name="Layer 2" xmlns="http://www.w3.org/2000/svg" viewBox="0 0 82.22 50.05">
  <defs>
    <style>
      .cls-1 {
        stroke-width: .65px;
      }

      .cls-1, .cls-2, .cls-3, .cls-4 {
        stroke: #000;
      }

      .cls-1, .cls-2, .cls-3, .cls-4, .cls-5 {
        stroke-miterlimit: 10;
      }

      .cls-2 {
        stroke-width: .21px;
      }

      .cls-2, .cls-6 {
        fill: #fbb03b;
      }

      .cls-3 {
        stroke-width: .74px;
      }

      .cls-3, .cls-4, .cls-7 {
        fill: #333;
      }

      .cls-4 {
        stroke-width: .59px;
      }

      .cls-5 {
        stroke: #333;
        stroke-width: .74px;
      }

      .cls-5, .cls-8 {
        fill: #999;
      }
    </style>
  </defs>
  <g id="Layer_1-2" data-name="Layer 1">
    <g>
      <polygon class="cls-3" points="81.82 49.68 .37 49.53 .58 9.43 78.07 5.73 81.82 49.68"/>
      <polygon class="cls-5" points="80.83 43.17 .37 43.09 .59 5.73 78.07 5.73 80.83 43.17"/>
      <g>
        <ellipse class="cls-1" cx="43.93" cy="21.19" rx="20.22" ry="30.66" transform="translate(20.15 63.77) rotate(-86.57)"/>
        <ellipse class="cls-2" cx="43.94" cy="17.69" rx="6.14" ry="10.56" transform="translate(23.82 60.58) rotate(-86.8)"/>
        <path class="cls-7" d="M44.76,18.7l-1.74-.08.07-2.21c.02-.5.36-.89.77-.87h.25c.41.03.73.45.71.95l-.07,2.21Z"/>
        <path class="cls-4" d="M30.6,33.19c-.04.3,5.98,3.07,13.7,3.21,8.2.15,14.64-2.73,14.6-3.04-.04-.29-5.86,1.79-14.55,1.67-8.21-.12-13.7-2.13-13.75-1.84Z"/>
        <path class="cls-4" d="M34.07,32.14c-.02.23,4.44,1.33,9.76,1.5,6.13.19,11.19-.95,11.18-1.19-.01-.22-4.15.32-11.45.15-6.03-.14-9.47-.66-9.49-.46Z"/>
        <path class="cls-4" d="M56.26,11.18c-.08.21,3.61,1.31,4.87,5.25,1.05,3.27-.18,6.58.06,6.66.25.08,2.01-3.52,1.13-6.87-1.15-4.38-5.98-5.27-6.07-5.03Z"/>
      </g>
      <path class="cls-8" d="M28.06,12.54c.1.23.19.46.29.69.08-.23.17-.46.25-.69h-.54Z"/>
      <polygon class="cls-6" points="29.03 12.88 24.83 12.68 24.91 10.18 29.11 10.38 29.03 12.88"/>
      <path class="cls-1" d="M6.51,11.32l-3.27-.16.26-8.06c0-.08.06-.15.13-.14l3.15.15-.27,8.21Z"/>
      <path class="cls-7" d="M28.98,12.4L3.59,3.57c-.25-.09-.4-.4-.34-.72l.6-2.86,25.84,8.99-.72,3.42Z"/>
    </g>
  </g>
</svg>