<?xml version="1.0" encoding="UTF-8"?>
<svg id="Layer_2" data-name="Layer 2" xmlns="http://www.w3.org/2000/svg" viewBox="0 0 72.02 72.02">
  <defs>
    <style>
      .cls-1 {
        fill: #fbb03b;
        stroke-width: .17px;
      }

      .cls-1, .cls-2, .cls-3 {
        stroke-miterlimit: 10;
      }

      .cls-1, .cls-3 {
        stroke: #000;
      }

      .cls-2 {
        fill: #1a1a1a;
        stroke: #1a1a1a;
      }

      .cls-4 {
        fill: #333;
      }
    </style>
  </defs>
  <g id="Layer_1-2" data-name="Layer 1">
    <g>
      <circle class="cls-3" cx="36.01" cy="36.01" r="35.51"/>
      <ellipse class="cls-1" cx="36.01" cy="36.01" rx="12.59" ry="11.94"/>
      <circle class="cls-2" cx="36.01" cy="36.01" r=".9"/>
      <path class="cls-4" d="M21.66,58.48c-.12.3,5.66,4.21,13.27,4.33.03,0,.06,0,.08,0,7.18.09,12.06-2.83,11.97-3.11-.09-.28-4.86,2.59-11.97,2.46-8.01-.14-13.24-3.98-13.36-3.69Z"/>
      <path class="cls-4" d="M21.69,38.85c-.27-.03-2.15-4.47-.56-8.68,0-.02.01-.03.02-.05,1.52-3.96,4.95-5.68,5.16-5.54.21.14-3.17,1.82-4.64,5.75-1.66,4.43.28,8.55.02,8.52Z"/>
      <path class="cls-4" d="M8.46,39.73c-.33,0-1.8-6.79.93-13.86.01-.03.02-.06.03-.08,2.6-6.65,7.12-10.06,7.35-9.87.23.19-4.21,3.51-6.75,10.11-2.86,7.43-1.25,13.7-1.57,13.7Z"/>
      <path class="cls-4" d="M58.13,40.04c.33,0,1.8-6.79-.93-13.86-.01-.03-.02-.06-.03-.08-2.6-6.65-7.12-10.06-7.35-9.87-.23.19,4.21,3.51,6.75,10.11,2.86,7.43,1.25,13.7,1.57,13.7Z"/>
      <path class="cls-4" d="M67.31,39.28c.35.01,1.58-7.83-1.67-16.19-.01-.04-.03-.07-.04-.09-3.09-7.88-8.07-12.07-8.3-11.86-.23.21,4.65,4.3,7.67,12.11,3.4,8.8,2,16.02,2.34,16.03Z"/>
      <path class="cls-4" d="M18.38,62.83c-.15.38,7.12,5.29,16.71,5.44.04,0,.08,0,.11,0,9.04.11,15.18-3.55,15.07-3.91-.11-.35-6.12,3.25-15.07,3.09-10.08-.18-16.67-4.99-16.81-4.63Z"/>
    </g>
  </g>
</svg>